<?xml version="1.0" encoding="UTF-8"?>
<svg width="1024px" height="1024px" viewBox="0 0 1024 1024" version="1.1" xmlns="http://www.w3.org/2000/svg" xmlns:xlink="http://www.w3.org/1999/xlink">
    <title>logo</title>
    <g id="logo" stroke="none" stroke-width="1" fill="none" fill-rule="evenodd">
        <g id="ChatGPT-Image-Jun-21,-2026,-10_32_33-AM" transform="translate(0, 31)" fill-rule="nonzero">
            <path d="M496.689952,0 C497.938447,0 499.186942,0 500.47327,0 C518.997351,0.0495803456 537.17368,0.495546552 555.483749,3.5391797 C556.487328,3.70486152 557.490907,3.87054334 558.524897,4.04124581 C564.16632,5.00219307 569.769969,6.09493992 575.367739,7.28251789 C577.796768,7.78726423 580.229774,8.24753749 582.670041,8.69435073 C617.138257,15.1846348 651.131997,27.6834498 682.547755,43.0454741 C683.499547,43.5103467 684.451338,43.9752192 685.431972,44.4541788 C717.962751,60.5256694 747.213057,81.2616969 773.870839,105.770892 C776.096058,107.7992 778.354617,109.7652 780.648643,111.714354 C789.901174,119.764806 798.52415,128.689095 806.408468,138.074128 C807.268727,139.065122 808.128987,140.056116 809.015315,141.077141 C827.007689,161.880194 842.133325,184.553085 855.525647,208.544816 C855.932722,209.272233 856.339796,209.99965 856.759207,210.74911 C863,221.951975 863,221.951975 863,224.560881 C857.945196,222.810429 853.739443,220.064043 849.252529,217.220184 C806.538233,190.69359 758.660988,173.187103 709.31617,164.109163 C707.254651,163.727304 705.195038,163.335198 703.135595,162.942302 C683.666062,159.308885 664.651329,157.853554 644.842312,157.894009 C643.800527,157.894063 642.758742,157.894117 641.685387,157.894172 C620.258502,157.945405 599.24688,160.033508 578.107015,163.432898 C577.230862,163.573182 576.354709,163.713465 575.452006,163.857999 C514.841944,173.645375 456.322938,197.287953 407.064447,234.17052 C406.493235,234.594962 405.922022,235.019403 405.3335,235.456706 C401.226072,238.516269 397.184514,241.650555 393.183505,244.847897 C392.628982,245.289371 392.074459,245.730845 391.503131,246.185697 C382.536215,253.402315 374.311918,261.363638 366.15571,269.472597 C364.683762,270.929668 364.683762,270.929668 363.182079,272.416175 C356.713166,278.914717 350.822122,285.708247 345.134091,292.896093 C344.193377,294.053242 343.252241,295.210047 342.310354,296.36624 C304.52448,344.295215 277.753922,410.076685 277.68556,471.51693 C277.682006,472.650325 277.678452,473.783721 277.674791,474.951462 C277.66941,477.340192 277.666879,479.728931 277.667051,482.117667 C277.664726,485.723332 277.645332,489.328643 277.625081,492.934246 C277.592445,505.105964 277.821935,516.859118 280.000441,528.866122 C280.275423,530.452745 280.275423,530.452745 280.55596,532.07142 C284.971878,556.309885 291.945004,579.782621 301.355736,602.540022 C301.721518,603.425723 302.087301,604.311424 302.464167,605.223964 C313.225767,630.918763 327.820381,654.453463 345.134091,676.213923 C345.88699,677.174636 346.63989,678.13535 347.415604,679.125176 C362.924995,698.561591 380.665532,715.426703 400.657337,730.157616 C402.573917,731.57408 404.472624,733.010933 406.367898,734.455677 C422.679064,746.701769 440.890405,756.876396 459.561143,765.040522 C461.391184,765.846927 463.204262,766.691523 465.015711,767.538862 C478.81378,773.819664 493.852525,779.017957 508.714818,782.036738 C510.054071,782.350552 511.393323,782.664367 512.773159,782.987691 C513.125521,783.692398 513.477883,784.397105 513.840923,785.123167 C441.095386,803.053468 368.360722,804.909088 296.016912,782.987691 C294.535079,782.54892 293.05303,782.110873 291.570673,781.673874 C276.881242,777.267156 263.034981,771.040715 249.035263,764.836151 C248.195133,764.465388 247.355003,764.094626 246.489415,763.712628 C234.094547,758.203626 222.403029,751.636118 210.715386,744.764455 C209.971175,744.341046 209.226964,743.917637 208.460202,743.481397 C207.486974,742.920027 207.486974,742.920027 206.494085,742.347317 C199.604667,739.35417 190.455676,741.583437 183.271798,742.755669 C182.323743,742.903856 181.375689,743.052043 180.398905,743.20472 C177.316285,743.689067 174.235759,744.185512 171.15517,744.682602 C168.967574,745.029574 166.779907,745.376096 164.592171,745.722186 C151.10534,747.865871 137.643307,750.133204 124.19203,752.489652 C103.387376,756.10911 82.514645,759.333554 61.657677,762.635051 C58.4478433,763.143224 55.2381115,763.652041 52.0283752,764.160829 C49.7850734,764.515985 47.5415654,764.869816 45.2980365,765.223535 C43.9426436,765.438159 42.5872507,765.652783 41.1907853,765.87391 C40.0065195,766.060867 38.8222538,766.247824 37.6021012,766.440446 C34.7452781,766.916512 31.9138594,767.46433 29.0757219,768.039364 C21.2706741,769.052981 15.2178346,767.2417 8.78819147,762.700675 C2.40973389,756.177717 -0.0824245352,750.005855 0,740.97628 C0.385430807,736.524357 1.96001626,733.041815 3.91651475,729.066938 C4.32961146,728.187861 4.74270817,727.308784 5.16832295,726.403068 C6.69948316,723.181849 8.27277091,719.983938 9.85595624,716.787955 C10.1841238,716.125378 10.5122914,715.462801 10.8504034,714.780147 C14.2125716,707.99834 17.5876294,701.223034 21.0067467,694.469735 C25.8469467,684.898652 30.52713,675.260653 35.1369684,665.576527 C38.7627312,657.970231 42.447116,650.394652 46.1683,642.834607 C46.7049623,641.743541 47.2416245,640.652474 47.7945493,639.528345 C49.9776487,635.091983 52.1622241,630.656361 54.3511945,626.222893 C58.0629802,618.701462 61.736891,611.162808 65.3797238,603.60776 C66.1156975,602.095688 66.1156975,602.095688 66.8665393,600.553068 C68.257202,597.680766 69.6210286,594.797267 70.9771469,591.908525 C71.5915175,590.651499 71.5915175,590.651499 72.2182996,589.36908 C75.8509867,581.487628 75.9864647,574.578795 73.3462499,566.299504 C72.9935435,565.161581 72.640837,564.023658 72.2774424,562.851253 C71.895143,561.656211 71.5128436,560.461168 71.1189594,559.229912 C70.3279947,556.654956 69.5411486,554.078731 68.7581982,551.501327 C68.3662639,550.212174 67.9743296,548.923022 67.5705185,547.594804 C63.485637,533.844235 60.1825146,519.891976 57.6384293,505.776294 C57.4770446,504.900572 57.3156598,504.02485 57.1493847,503.122591 C53.748564,483.048278 53.1977781,462.75977 53.2338996,442.446103 C53.2344803,441.207962 53.235061,439.969822 53.2356593,438.694162 C53.27818,418.906521 54.2776028,399.928839 57.9053705,380.450583 C58.1285218,379.19412 58.3516732,377.937656 58.5815867,376.643118 C76.1146365,279.340442 124.369783,189.377776 201.978536,115.430582 C204.59782,113.16224 207.122326,110.802094 209.661437,108.444407 C253.979806,68.139423 310.594992,38.3349406 367.557151,20.6229827 C368.746374,20.2500696 368.746374,20.2500696 369.959622,19.8696229 C376.254352,17.9038468 382.572732,16.0317332 388.912446,14.2165566 C389.710251,13.9853246 390.508056,13.7540927 391.330037,13.5158537 C403.903394,9.93235567 416.67638,7.63912633 429.554242,5.47445426 C430.351101,5.33922487 431.14796,5.20399547 431.968965,5.06466822 C453.615512,1.41932709 474.727581,-0.0668418639 496.689952,0 Z" id="路径" fill="#017AFD"></path>
            <path d="M631.542375,190.099297 C632.505037,190.089176 633.467699,190.079055 634.459532,190.068627 C636.025502,190.061597 636.025502,190.061597 637.623108,190.054426 C638.709141,190.047027 639.795173,190.039629 640.914116,190.032006 C644.44453,190.013443 647.974772,190 651.505233,190 C652.70019,190 653.895147,190 655.126315,190 C672.296358,190 688.912096,190.577274 705.86506,193.477146 C707.476902,193.715291 709.089379,193.949188 710.702518,194.178386 C776.996555,203.929568 842.813099,230.823473 893.920681,274.687443 C894.977117,275.548341 896.033552,276.409238 897.122001,277.296224 C905.50723,284.190004 913.276344,291.679008 920.967033,299.331028 C921.948833,300.303068 922.930632,301.275107 923.942184,302.276603 C930.415383,308.779384 936.320454,315.571896 942.003084,322.772488 C942.523985,323.422035 943.044885,324.071582 943.581571,324.740813 C968.660388,356.124454 987.579942,392.210684 1001.83896,429.628142 C1002.21688,430.61034 1002.59479,431.592538 1002.98416,432.6045 C1005.73803,439.937335 1007.8678,447.365961 1009.8527,454.939575 C1010.3377,456.776903 1010.3377,456.776903 1010.8325,458.651348 C1011.47042,461.073913 1012.10597,463.497103 1012.73889,465.920976 C1013.44415,468.601194 1014.1695,471.273793 1014.91137,473.94402 C1017.83191,484.80679 1019.40272,495.713568 1020.72498,506.871527 C1021.04403,509.536871 1021.39154,512.196954 1021.74391,514.858048 C1026.00424,549.071749 1022.97368,584.102255 1015.72944,617.694093 C1015.56243,618.47114 1015.39543,619.248186 1015.22336,620.048779 C1007.13245,656.29236 993.092232,692.887392 975.076432,725.288554 C974.550108,726.265329 974.550108,726.265329 974.013151,727.261836 C973.067661,729.013161 972.094834,730.749651 971.119651,732.484615 C967.619791,742.492576 970.309981,751.06791 974.124801,760.546746 C975.100643,763.074613 976.075886,765.60271 977.050648,768.130993 C977.596615,769.528192 978.142874,770.925277 978.689394,772.32226 C981.772518,780.233831 984.725343,788.195321 987.700638,796.147895 C988.721702,798.872839 989.747364,801.596007 990.774428,804.318694 C996.150311,818.590017 1001.39792,832.904613 1006.05452,847.429576 C1006.98721,850.086165 1007.99601,852.667535 1009.05967,855.272614 C1011.8531,862.212667 1014.36881,869.242889 1016.7995,876.316343 C1017.33058,877.847473 1017.87138,879.375265 1018.42207,880.899449 C1022.29778,891.642946 1026.68396,904.48527 1021.91895,915.633797 C1020.41349,918.120067 1018.79535,920.124702 1016.79793,922.232708 C1016.21944,922.856687 1015.64095,923.480665 1015.04493,924.123552 C1009.21581,929.721445 1002.47624,931.914369 994.493041,932.383995 C989.123611,932.170761 984.190487,930.990478 979.037386,929.566512 C977.212642,929.074581 975.387626,928.583658 973.562378,928.093595 C972.116344,927.703769 972.116344,927.703769 970.641096,927.306069 C965.508507,925.936148 960.360959,924.625426 955.213224,923.313787 C954.110905,923.032569 953.008586,922.751352 951.872864,922.461612 C948.338338,921.560588 944.803447,920.661007 941.268492,919.761671 C940.034076,919.447304 938.799659,919.132936 937.527836,918.809042 C921.774921,914.798587 906.014081,910.821092 890.243546,906.880556 C889.469268,906.687081 888.694991,906.493605 887.89725,906.294267 C880.280682,904.391416 872.663498,902.491061 865.045154,900.595335 C862.898454,900.061022 860.751884,899.526188 858.605357,898.991179 C855.988077,898.339008 853.370536,897.687879 850.752674,897.03805 C844.236476,895.413715 837.751563,893.720182 831.293804,891.876024 C821.981693,889.571418 816.153076,892.168225 808.106948,896.921275 C806.569426,897.79203 806.569426,897.79203 805.000844,898.680376 C801.863144,900.458512 798.740237,902.260608 795.618879,904.067247 C771.952873,917.650694 747.381771,927.968755 721.71201,937.172151 C719.208164,938.073464 716.712399,938.991404 714.221048,939.926502 C690.363169,948.770381 665.225209,953.440031 640.219224,957.762213 C639.313437,957.923459 638.407651,958.084705 637.474416,958.250838 C618.396258,961.412891 599.250272,962.098536 579.947963,961.98922 C576.338659,961.969447 572.729646,961.967307 569.120292,961.967567 C566.782255,961.962322 564.44422,961.956097 562.106188,961.948784 C561.048618,961.947595 559.991047,961.946406 558.901428,961.945181 C549.010946,961.878702 539.347692,961.066652 529.629697,959.231478 C523.866042,958.163498 518.104998,957.210236 512.299737,956.39756 C431.970418,945.075676 354.930314,906.387233 294.49339,852.776533 C293.726803,852.103483 292.960216,851.430433 292.170399,850.736988 C285.094966,844.461489 278.345688,837.895474 271.661292,831.209743 C269.855354,829.406049 268.041007,827.61111 266.226196,825.81635 C259.123399,818.749109 252.631817,811.487908 246.410987,803.622932 C244.296266,801.109324 242.151333,798.62548 240,796.143036 C240.352604,795.437789 240.705209,794.732541 241.068498,794.005923 C241.753046,794.354414 242.437594,794.702906 243.142886,795.061957 C252.070246,799.572451 260.941831,803.185272 270.37706,806.494678 C273.6224,807.687778 276.722672,809.007619 279.868326,810.43498 C290.729848,815.040518 302.339896,817.734479 313.726351,820.719836 C315.210285,821.109048 315.210285,821.109048 316.724197,821.506123 C327.32967,824.246903 337.994675,826.522194 348.786437,828.400087 C349.707977,828.565637 350.629517,828.731188 351.578983,828.901755 C371.477732,832.184738 391.648766,832.83017 411.775898,832.752576 C415.302887,832.74109 418.829297,832.752571 422.35627,832.766142 C444.461058,832.781628 465.837974,831.095126 487.482987,826.580723 C490.596923,825.946924 493.72125,825.390057 496.850604,824.838579 C510.468307,822.412918 523.540144,818.53266 536.708495,814.375282 C537.812364,814.029287 538.916232,813.683293 540.053551,813.326813 C547.786424,810.8479 555.240196,807.9263 562.686349,804.691488 C563.620802,804.289191 564.555255,803.886893 565.518025,803.472405 C596.317809,790.084672 625.145385,773.350327 651.37167,752.332218 C652.454276,751.47683 653.536881,750.621442 654.652293,749.740133 C660.993058,744.654596 666.990193,739.258489 672.929449,733.715959 C675.025603,731.802353 677.113007,729.983933 679.307046,728.193692 C681.817642,726.074509 683.878581,724.059065 685.964288,721.544432 C688.517229,718.543442 691.147749,715.736554 693.978022,712.99598 C698.180759,708.8497 701.882523,704.397233 705.572893,699.793463 C707.126086,697.858537 708.699303,695.93941 710.297657,694.041624 C736.401073,662.989104 756.098869,625.737101 769.974931,587.77451 C770.363002,586.727314 770.751074,585.680118 771.150905,584.601189 C791.112856,530.131878 795.228987,471.014304 781.728407,414.66835 C781.40335,413.311576 781.078293,411.954801 780.743386,410.556912 C766.33184,354.607129 732.731677,301.429544 686.632099,266.138991 C685.58806,265.302887 684.544021,264.466783 683.468344,263.605343 C645.605892,233.454724 601.670867,217.089769 555.206864,205.231268 C558.983381,201.735255 563.043935,201.038233 567.95371,200.189017 C568.786308,200.036003 569.618906,199.882989 570.476735,199.725339 C573.175874,199.23328 575.877765,198.758929 578.580255,198.28565 C580.428385,197.953415 582.276431,197.620707 584.124392,197.287531 C595.899702,195.18451 607.687494,193.329253 619.56299,191.882659 C623.738288,191.320153 627.319707,190.135869 631.542375,190.099297 Z" id="路径" fill="#FF4D8D"></path>
            <path d="M400.62717,457.812344 C410.289955,464.967877 416.278652,472.504875 419.592229,483.954768 C421.04637,496.17275 418.682797,505.794719 411.349465,515.727868 C404.100696,523.932566 396.003472,529.101357 384.979321,529.976328 C370.39578,530.311837 362.115074,527.132094 351.564294,517.164864 C344.10304,509.232865 341.950004,500.199866 342.000876,489.496156 C342.512061,478.905902 347.131275,469.998389 354.722345,462.571606 C368.154119,452.018553 385.267599,449.833465 400.62717,457.812344 Z" id="路径" fill="#111827"></path>
            <path d="M678.516232,457.538035 C687.837066,462.344236 696.568842,470.431614 699.86897,480.657501 C701.621384,490.88086 701.99833,502.210038 696.063284,511.090776 C695.53174,511.908116 695.000195,512.725456 694.452544,513.567564 C690.180885,519.562951 685.422338,523.559038 678.971078,527.075426 C678.327992,527.438078 677.684906,527.800729 677.022333,528.174371 C668.398445,532.205156 657.089681,531.489061 648.191754,528.740494 C639.069589,524.91043 631.781623,517.897835 627.69446,508.959489 C627.103703,507.780871 627.103703,507.780871 626.501011,506.578442 C622.436404,497.79805 621.80818,489.073209 625.157336,479.920708 C630.362415,468.552271 638.630483,460.53931 650.127981,455.677322 C659.076497,452.701798 669.960034,453.908988 678.516232,457.538035 Z" id="路径" fill="#111827"></path>
            <path d="M541.335629,458.125816 C551.121058,465.219805 558.153561,473.960539 560.680035,485.864246 C561.944192,496.164028 559.449458,505.389969 553.425882,513.869391 C545.952527,522.897914 538.01686,528.710678 526.029703,529.97235 C514.192322,530.304148 504.249145,527.688966 495.123991,520.003852 C486.529715,510.997126 482.855274,500.144222 483.004351,487.893785 C483.914157,478.442197 489.345921,468.561557 496.551313,462.380764 C499.227286,460.437293 501.927973,458.70835 504.796194,457.058953 C505.468085,456.672507 506.139976,456.286061 506.832227,455.887905 C517.222439,451.056473 531.559532,452.616031 541.335629,458.125816 Z" id="路径" fill="#111827"></path>
        </g>
    </g>
</svg>